<svg width="1170" height="700" viewBox="0 0 1170 700" fill="none" xmlns="http://www.w3.org/2000/svg">
<mask id="mask0_178_2049" style="mask-type:luminance" maskUnits="userSpaceOnUse" x="0" y="0" width="1170" height="700">
<path d="M0 0H1170V700H0V0Z" fill="white"/>
</mask>
<g mask="url(#mask0_178_2049)">
<path d="M937.479 776.874C792.025 766.022 684.093 442.477 427.042 442.217C169.983 441.956 50.245 629.044 -83.4031 631.217" stroke="#E5D097" stroke-width="2"/>
<path d="M804.342 764.593C666.071 750.632 594.531 428.921 333.564 415.153C72.5888 401.385 -13.0081 228.683 -137.223 226.153" stroke="#E5D097" stroke-width="2"/>
<path d="M671.109 704.934C570.204 631.738 626.137 218.989 441.724 213.534C257.319 208.079 103.407 386.41 -17.0381 388.534" stroke="#E5D097" stroke-width="2"/>
<path d="M611.228 704.847C527.288 673.352 588.664 410.924 383.354 385.869C178.051 360.814 51.415 159.629 -72.3856 154.869" stroke="#E5D097" stroke-width="2"/>
<path d="M560.064 743.545C486.728 733.561 525.395 555.983 319.353 540.381C113.303 524.778 -28.8437 274.255 -162.077 267.381" stroke="#E5D097" stroke-width="2"/>
</g>
</svg>
