<svg width="26" height="22" viewBox="0 0 26 22" fill="none" xmlns="http://www.w3.org/2000/svg">
<path d="M23.8333 9.16666H5.5L11.5317 3.13499C11.7035 2.96456 11.8399 2.76179 11.933 2.53838C12.026 2.31497 12.074 2.07534 12.074 1.83332C12.074 1.5913 12.026 1.35167 11.933 1.12826C11.8399 0.904855 11.7035 0.702087 11.5317 0.531655C11.1882 0.190195 10.7235 -0.00146484 10.2392 -0.00146484C9.75483 -0.00146484 9.29016 0.190195 8.94667 0.531655L1.08167 8.41499C0.393089 9.09947 0.00409345 10.0291 0 11C0.00892208 11.9645 0.397548 12.8867 1.08167 13.5667L8.94667 21.45C9.1176 21.6197 9.3203 21.7541 9.54318 21.8455C9.76606 21.9369 10.0048 21.9835 10.2456 21.9827C10.4865 21.9818 10.7249 21.9335 10.9471 21.8406C11.1694 21.7476 11.3711 21.6118 11.5408 21.4408C11.7106 21.2699 11.845 21.0672 11.9364 20.8443C12.0278 20.6214 12.0744 20.3827 12.0735 20.1418C12.0727 19.9009 12.0244 19.6626 11.9314 19.4404C11.8384 19.2181 11.7026 19.0164 11.5317 18.8467L5.5 12.8333H23.8333C24.3196 12.8333 24.7859 12.6402 25.1297 12.2964C25.4735 11.9525 25.6667 11.4862 25.6667 11C25.6667 10.5138 25.4735 10.0474 25.1297 9.70363C24.7859 9.35981 24.3196 9.16666 23.8333 9.16666Z" fill="#E5D097"/>
</svg>
