<svg width="6" height="13" viewBox="0 0 6 13" fill="none" xmlns="http://www.w3.org/2000/svg">
<path d="M0.5 12.5C0.434197 12.5004 0.368966 12.4877 0.308047 12.4629C0.247128 12.438 0.19172 12.4013 0.145 12.355C0.0981358 12.3085 0.0609387 12.2532 0.0355544 12.1923C0.0101701 12.1313 -0.00289917 12.066 -0.00289917 12C-0.00289917 11.934 0.0101701 11.8686 0.0355544 11.8077C0.0609387 11.7468 0.0981358 11.6915 0.145 11.645L4.23 7.55997C4.5109 7.27872 4.66868 6.89747 4.66868 6.49997C4.66868 6.10247 4.5109 5.72122 4.23 5.43997L0.145 1.35497C0.0508481 1.26082 -0.00204587 1.13312 -0.00204587 0.999971C-0.00204587 0.86682 0.0508481 0.739122 0.145 0.644971C0.239152 0.550819 0.366849 0.497925 0.5 0.497925C0.633151 0.497925 0.760848 0.550819 0.855 0.644971L4.94 4.72997C5.17282 4.9622 5.35753 5.23808 5.48356 5.5418C5.60959 5.84553 5.67447 6.17113 5.67447 6.49997C5.67447 6.82881 5.60959 7.15441 5.48356 7.45814C5.35753 7.76186 5.17282 8.03774 4.94 8.26997L0.855 12.355C0.80828 12.4013 0.752872 12.438 0.691953 12.4629C0.631034 12.4877 0.565803 12.5004 0.5 12.5Z" fill="#FFFFFF"/>
</svg>
