<svg width="22" height="20" viewBox="0 0 22 20" fill="none" xmlns="http://www.w3.org/2000/svg">
<path d="M20.8029 13.9508H6.84587L7.54665 12.5234L19.1904 12.5023C19.5842 12.5023 19.9217 12.2211 19.992 11.832L21.6045 2.80625C21.6467 2.56953 21.5834 2.32578 21.4287 2.14062C21.3522 2.0495 21.2569 1.9761 21.1492 1.92551C21.0416 1.87492 20.9242 1.84835 20.8052 1.84766L5.99275 1.79844L5.86619 1.20312C5.7865 0.823437 5.44431 0.546875 5.05525 0.546875H1.43416C1.21473 0.546875 1.00429 0.634041 0.849135 0.789198C0.693978 0.944355 0.606812 1.15479 0.606812 1.37422C0.606812 1.59364 0.693978 1.80408 0.849135 1.95924C1.00429 2.1144 1.21473 2.20156 1.43416 2.20156H4.38494L4.93806 4.83125L6.29978 11.4242L4.54665 14.2859C4.45561 14.4088 4.40078 14.5547 4.38835 14.7071C4.37592 14.8596 4.4064 15.0124 4.47634 15.1484C4.61697 15.4273 4.90056 15.6031 5.21462 15.6031H6.6865C6.37271 16.0199 6.20323 16.5275 6.20369 17.0492C6.20369 18.3758 7.28181 19.4539 8.60837 19.4539C9.93493 19.4539 11.0131 18.3758 11.0131 17.0492C11.0131 16.5266 10.8396 16.018 10.5302 15.6031H14.306C13.9922 16.0199 13.8228 16.5275 13.8232 17.0492C13.8232 18.3758 14.9013 19.4539 16.2279 19.4539C17.5545 19.4539 18.6326 18.3758 18.6326 17.0492C18.6326 16.5266 18.4592 16.018 18.1498 15.6031H20.8052C21.2599 15.6031 21.6326 15.2328 21.6326 14.7758C21.6312 14.5566 21.5432 14.3468 21.3878 14.1923C21.2324 14.0377 21.0221 13.9509 20.8029 13.9508ZM6.33728 3.42969L19.8326 3.47422L18.5107 10.8758L7.90993 10.8945L6.33728 3.42969ZM8.60837 17.7898C8.20056 17.7898 7.86775 17.457 7.86775 17.0492C7.86775 16.6414 8.20056 16.3086 8.60837 16.3086C9.01618 16.3086 9.349 16.6414 9.349 17.0492C9.349 17.2456 9.27097 17.434 9.13207 17.5729C8.99318 17.7118 8.8048 17.7898 8.60837 17.7898ZM16.2279 17.7898C15.8201 17.7898 15.4873 17.457 15.4873 17.0492C15.4873 16.6414 15.8201 16.3086 16.2279 16.3086C16.6357 16.3086 16.9685 16.6414 16.9685 17.0492C16.9685 17.2456 16.8905 17.434 16.7516 17.5729C16.6127 17.7118 16.4243 17.7898 16.2279 17.7898Z" fill="#C0772C"/>
</svg>
