<svg width="56" height="26" viewBox="0 0 56 26" fill="none" xmlns="http://www.w3.org/2000/svg">
<path d="M23.9928 20.7652C22.1963 23.9736 18.5384 25.5001 14.8398 25.5001H0C15.4483 23.5837 26.2069 15.9183 27.5862 5.24146C28.9655 15.9183 39.7241 23.5837 55.1724 25.5001H40.3326C36.634 25.5001 32.9761 23.9736 31.1796 20.7652C29.2351 17.2926 27.9962 13.3632 27.5862 9.07417C27.1762 13.3632 25.9373 17.2926 23.9928 20.7652Z" fill="#E5D097"/>
<path d="M15.4523 19.7894C14.5819 20.2869 13.6662 20.7543 12.7075 21.1897C12.1629 19.2796 11.9625 17.2756 12.1223 15.2793C12.3338 12.6384 13.1691 10.0923 14.5543 7.86676C15.9396 5.6412 17.832 3.80472 20.0639 2.52006C22.2959 1.23541 24.7985 0.542206 27.35 0.501868C29.9015 0.461524 32.4233 1.07529 34.6918 2.28879C36.9604 3.50229 38.9058 5.27805 40.3556 7.45882C41.8054 9.6396 42.715 12.158 43.0038 14.791C43.2399 16.9447 43.0548 19.1207 42.4649 21.1897C41.5062 20.7543 40.5905 20.2869 39.7201 19.7893C40.0871 18.2767 40.1899 16.7031 40.019 15.1441C39.7861 13.0208 39.0526 10.9899 37.8835 9.23137C36.7143 7.47283 35.1455 6.04081 33.3162 5.06226C31.4868 4.08369 29.4533 3.58875 27.3957 3.62128C25.3381 3.65381 23.3201 4.21281 21.5203 5.24873C19.7205 6.28468 18.1944 7.76559 17.0773 9.56032C15.9602 11.355 15.2866 13.4081 15.1162 15.5378C15.0016 16.9693 15.1166 18.4057 15.4523 19.7894Z" fill="#C0772C"/>
</svg>
