<svg width="32" height="32" viewBox="0 0 32 32" fill="none" xmlns="http://www.w3.org/2000/svg">
<path d="M32 13.3333C32 9.65725 29.0093 6.66659 25.3333 6.66659H22.6667V5.33325C22.6667 3.12792 20.872 1.33325 18.6667 1.33325H16V3.99992H18.6667C19.4027 3.99992 20 4.59859 20 5.33325V22.6666H2.66667V17.3333H0V25.3333H2.716C2.684 25.5533 2.66667 25.7746 2.66667 25.9999C2.66667 28.5733 4.76 30.6666 7.33333 30.6666C9.90667 30.6666 12 28.5733 12 25.9999C12 25.7746 11.9827 25.5533 11.9507 25.3333H20.0493C20.0173 25.5533 20 25.7746 20 25.9999C20 28.5733 22.0933 30.6666 24.6667 30.6666C27.24 30.6666 29.3333 28.5733 29.3333 25.9999C29.3333 25.7746 29.316 25.5533 29.284 25.3333H32V13.3333ZM9.33333 25.9999C9.33333 27.1026 8.436 27.9999 7.33333 27.9999C6.23067 27.9999 5.33333 27.1026 5.33333 25.9999C5.33333 25.7479 5.38267 25.5253 5.45467 25.3333H9.21333C9.28533 25.5253 9.33333 25.7479 9.33333 25.9999ZM25.3333 9.33325C27.5387 9.33325 29.3333 11.1279 29.3333 13.3333V14.6666H22.6667V9.33325H25.3333ZM26.6667 25.9999C26.6667 27.1026 25.7693 27.9999 24.6667 27.9999C23.564 27.9999 22.6667 27.1026 22.6667 25.9999C22.6667 25.7479 22.716 25.5253 22.788 25.3333H26.5467C26.6187 25.5253 26.6667 25.7479 26.6667 25.9999ZM22.6667 22.6666V17.3333H29.3333V22.6666H22.6667ZM13.3333 3.99992H0V1.33325H13.3333V3.99992ZM10.6667 9.33325H0V6.66659H10.6667V9.33325ZM8 14.6666H0V11.9999H8V14.6666Z" fill="#C0772C"/>
</svg>
