<svg width="17" height="17" viewBox="0 0 17 17" fill="none" xmlns="http://www.w3.org/2000/svg">
<g clip-path="url(#clip0_178_2008)">
<path d="M8.17242 8.5C8.96355 8.5 9.73691 8.26541 10.3947 7.82588C11.0525 7.38635 11.5652 6.76164 11.8679 6.03074C12.1707 5.29983 12.2499 4.49556 12.0956 3.71964C11.9412 2.94372 11.5603 2.23098 11.0009 1.67157C10.4414 1.11216 9.72871 0.731202 8.95279 0.576861C8.17686 0.42252 7.3726 0.501733 6.64169 0.804484C5.91079 1.10723 5.28607 1.61992 4.84655 2.27772C4.40702 2.93552 4.17242 3.70888 4.17242 4.5C4.17348 5.56054 4.59525 6.57734 5.34517 7.32726C6.09508 8.07718 7.11188 8.49894 8.17242 8.5ZM8.17242 1.83334C8.69984 1.83334 9.21541 1.98973 9.65394 2.28275C10.0925 2.57577 10.4343 2.99224 10.6361 3.47951C10.8379 3.96678 10.8907 4.50296 10.7879 5.02024C10.685 5.53753 10.431 6.01268 10.058 6.38562C9.6851 6.75856 9.20995 7.01254 8.69267 7.11543C8.17538 7.21832 7.6392 7.16551 7.15194 6.96368C6.66467 6.76185 6.24819 6.42005 5.95517 5.98152C5.66216 5.54299 5.50576 5.02742 5.50576 4.5C5.50576 3.79276 5.78671 3.11448 6.28681 2.61438C6.7869 2.11429 7.46518 1.83334 8.17242 1.83334Z" fill="white"/>
<path d="M8.17242 9.83325C6.58167 9.83502 5.05657 10.4677 3.93173 11.5926C2.8069 12.7174 2.17419 14.2425 2.17242 15.8333C2.17242 16.0101 2.24266 16.1796 2.36769 16.3047C2.49271 16.4297 2.66228 16.4999 2.83909 16.4999C3.0159 16.4999 3.18547 16.4297 3.3105 16.3047C3.43552 16.1796 3.50576 16.0101 3.50576 15.8333C3.50576 14.5956 3.99742 13.4086 4.87259 12.5334C5.74776 11.6583 6.93475 11.1666 8.17242 11.1666C9.4101 11.1666 10.5971 11.6583 11.4723 12.5334C12.3474 13.4086 12.8391 14.5956 12.8391 15.8333C12.8391 16.0101 12.9093 16.1796 13.0344 16.3047C13.1594 16.4297 13.3289 16.4999 13.5058 16.4999C13.6826 16.4999 13.8521 16.4297 13.9772 16.3047C14.1022 16.1796 14.1724 16.0101 14.1724 15.8333C14.1707 14.2425 13.538 12.7174 12.4131 11.5926C11.2883 10.4677 9.76318 9.83502 8.17242 9.83325Z" fill="white"/>
</g>
<defs>
<clipPath id="clip0_178_2008">
<rect width="16" height="16" fill="white" transform="translate(0.172424 0.5)"/>
</clipPath>
</defs>
</svg>
